<svg xmlns="http://www.w3.org/2000/svg" width="156" height="48" fill="none" xmlns:v="https://vecta.io/nano"><g clip-path="url(#A)"><g fill="#384967"><path d="M55.359 37.051c0-.557.182-1.102.547-1.642s.802-.803 1.315-.803c.343 0 .836.268 1.478.804s1.563 1.061 2.761 1.573 2.611.77 4.238.77c2.14 0 3.69-.39 4.651-1.169s1.443-1.752 1.445-2.918c0-1.428-.535-2.564-1.605-3.408s-2.376-1.482-3.917-1.915l-4.623-1.428a8.95 8.95 0 0 1-3.922-2.596c-1.07-1.213-1.604-2.815-1.604-4.807 0-2.417.867-4.508 2.6-6.272s4.378-2.645 7.934-2.645c2.269 0 4.345.342 6.228 1.027s2.826 1.463 2.827 2.337c0 .514-.203 1.092-.61 1.733s-.908.961-1.504.961c-.171 0-.996-.313-2.472-.94s-2.943-.941-4.399-.943c-1.97 0-3.436.466-4.399 1.398s-1.444 1.981-1.446 3.148c0 1.212.535 2.165 1.606 2.858s2.387 1.234 3.949 1.622c1.575.394 3.127.872 4.651 1.43 1.543.562 2.85 1.525 3.922 2.889s1.607 3.128 1.606 5.29c0 2.63-.942 4.709-2.827 6.235s-4.517 2.291-7.898 2.294c-2.912 0-5.395-.524-7.45-1.573s-3.083-2.151-3.084-3.308zm25.348-5.331V3.441c0-.514.278-.953.835-1.317a3.23 3.23 0 0 1 1.798-.547c.662-.006 1.31.185 1.863.547s.835.803.835 1.317v7.54h8.091c.471 0 .855.216 1.155.643a2.52 2.52 0 0 1 .45 1.476 2.37 2.37 0 0 1-.45 1.445c-.299.407-.684.611-1.155.612h-8.091v16.416c0 1.824.395 3.107 1.186 3.849s2.171 1.113 4.141 1.114h1.991c.73 0 1.297.234 1.701.701a2.51 2.51 0 0 1 .61 1.706 2.56 2.56 0 0 1-.638 1.733c-.426.49-.982.734-1.67.734h-1.991c-7.108.004-10.661-3.227-10.661-9.691zm16.907-2.247v-6.551c0-3.294 1.252-6.173 3.757-8.635s5.469-3.693 8.892-3.693 6.401 1.22 8.926 3.66 3.789 5.328 3.79 8.664v6.551c0 3.255-1.274 6.144-3.821 8.67s-5.513 3.789-8.895 3.793-6.337-1.253-8.862-3.758-3.788-5.406-3.787-8.702zm5.331-.018c0 2 .727 3.767 2.182 5.299s3.167 2.298 5.136 2.297c2.012 0 3.744-.776 5.198-2.329s2.183-3.309 2.189-5.267v-6.512c0-1.915-.728-3.639-2.183-5.17s-3.189-2.298-5.199-2.298-3.735.766-5.168 2.298-2.151 3.256-2.152 5.17l-.003 6.512zm25.011 10.036v-26.65c0-.556.246-1.006.738-1.348s1.124-.515 1.894-.515c.685 0 1.263.174 1.733.522.221.152.402.356.525.595s.185.505.18.773v3.057c.771-1.472 1.905-2.728 3.403-3.768a8.58 8.58 0 0 1 5.009-1.56h2.183c.557 0 1.038.249 1.445.748.401.485.618 1.096.61 1.725a2.53 2.53 0 0 1-.61 1.693c-.408.477-.889.716-1.445.715h-2.183c-2.183 0-4.088.876-5.715 2.628s-2.44 4.015-2.44 6.789v14.602c0 .47-.268.908-.804 1.313-.545.409-1.212.623-1.894.607-.73 0-1.35-.192-1.861-.577s-.768-.834-.768-1.348zm21.468-32.735c-.665-.62-.997-1.336-.996-2.151s.321-1.52.96-2.119 1.436-.9 2.377-.899c.859-.016 1.689.307 2.311.899.644.598.967 1.304.967 2.119s-.322 1.531-.964 2.151a3.21 3.21 0 0 1-1.062.699 3.2 3.2 0 0 1-1.249.231 3.31 3.31 0 0 1-2.344-.93zm-.289 32.735v-26.65c0-.556.257-1.006.77-1.348s1.133-.515 1.863-.515c.77 0 1.411.173 1.927.515s.769.792.769 1.348v26.65c0 .471-.268.912-.802 1.317-.545.41-1.213.624-1.894.608-.73 0-1.349-.192-1.863-.577s-.77-.834-.77-1.348z"/></g><path d="M21.368.402L4.333 7.092a5.8 5.8 0 0 0-3.277 7.514 5.8 5.8 0 0 0 7.514 3.276l17.035-6.69a5.8 5.8 0 0 0 3.277-7.514A5.8 5.8 0 0 0 21.368.402z" fill="#878fff"/><path d="M33.013 29.987l-17.035 6.69a5.8 5.8 0 0 0-3.277 7.514 5.8 5.8 0 0 0 7.514 3.276l17.035-6.69a5.8 5.8 0 0 0 3.277-7.514 5.8 5.8 0 0 0-7.514-3.276z" fill="#ff94d7"/><path d="M1.057 14.605c.566 1.428 1.674 2.575 3.082 3.188s3.002.645 4.434.088l1.387-.547a10.29 10.29 0 0 1-.651-8.444 10.29 10.29 0 0 1 5.903-6.073L4.333 7.09c-1.428.566-2.574 1.674-3.188 3.082s-.645 3.002-.088 4.433z" fill="#6c73cc"/><path d="M32.185 31.717a10.28 10.28 0 0 1-5.811 13.328l10.88-4.273c1.428-.566 2.574-1.674 3.188-3.082s.645-3.002.088-4.433c-.566-1.428-1.674-2.574-3.082-3.187s-3.001-.646-4.433-.088l-1.387.547c.21.384.396.781.556 1.188z" fill="#db82bd"/><path d="M40.402 27.72c-1.388-2.858-2.942-4.306-5.419-5.805-1.4-.847-7.149-2.663-13.224-4.469-7.037-2.197-14.982-4.731-16.507-5.442-2.849-1.325-3.145-3.01-2.212-4.195-3.313 2.037-3.866 8.344-1.888 12.418 1.384 2.855 2.938 4.302 5.415 5.802 1.4.847 7.148 2.664 13.224 4.469 7.037 2.197 14.983 4.731 16.508 5.442 2.849 1.326 3.145 3.01 2.212 4.195 3.317-2.034 3.87-8.341 1.892-12.415z" fill="#6effb4"/></g><defs><clipPath id="A"><path fill="#fff" d="M0 0h155.043v47.863H0z"/></clipPath></defs></svg>